# xmcd
#
# Track frame offsets: 
#        150
#        18416
#        33289
#        51313
#        76722
#        92039
#        112753
#        140142
#
# Disc length: 2131 seconds
#
# Revision: 0
# Processed by: cddbd v1.5.2PL0 Copyright (c) Steve Scherf et al.
# Submitted via: ExactAudioCopy v1.0b3
#
DISCID=5b085108
DTITLE=Bill Bourne and the Free Radio Band - Bluesland
DYEAR=2011
DGENRE=Blues
TTITLE0=Deep Dark Woods
TTITLE1=Home
TTITLE2=Forever Truly Bound
TTITLE3=On The Sunny Side
TTITLE4=Columbus Stockade Blues
TTITLE5=Who's Knockin?
TTITLE6=Daily Bread
TTITLE7=Maggie's Farm
EXTD=
EXTT0=
EXTT1=
EXTT2=
EXTT3=
EXTT4=
EXTT5=
EXTT6=
EXTT7=
PLAYORDER=
